<svg width="219" height="32" viewBox="0 0 219 32" fill="#487F78" xmlns="http://www.w3.org/2000/svg">
<path d="M118.154 11.9518H115.43C115.43 7.15621 112.707 5.01614 107.917 5.01614C103.789 5.01614 101.435 6.95827 101.435 10.1292C101.435 13.4905 103.952 14.4878 108.866 15.6381C114.442 16.9453 118.694 18.2936 118.694 23.8809C118.694 28.796 114.804 31.9258 108.66 31.9258C102.011 31.9258 98.1318 28.5645 98.1318 22.0172H100.816C100.816 27.2909 103.929 29.5505 108.66 29.5505C113.391 29.5505 115.963 27.4851 115.963 23.9033C115.963 20.415 113.282 19.4626 108.201 18.2338C102.544 16.8855 98.7038 15.5373 98.7038 10.1478C98.7038 5.74817 102.131 2.6557 107.913 2.6557C114.745 2.67064 118.154 5.84154 118.154 11.9518Z" fill="#263D39"></path>
<path d="M137.599 25.4235H140.245C139.583 28.8708 136.65 31.9222 131.366 31.9222C125.378 31.9222 121.787 27.642 121.787 20.9828C121.787 15.0406 125.289 10.7567 131.199 10.7567C135.907 10.7567 139.171 13.4944 140.077 17.9314C140.326 19.2124 140.439 20.5122 140.408 21.8157H124.386C124.511 27.1677 127.499 29.8232 131.366 29.8232C134.794 29.8232 136.98 28.0118 137.599 25.4235ZM124.429 19.7951H137.93C137.642 15.3133 134.957 12.8594 131.199 12.8594C127.359 12.8594 124.678 15.4738 124.429 19.7951Z" fill="#263D39"></path>
<path d="M161.221 19.1599V31.4065H158.661V19.2794C158.661 14.5249 156.638 12.9787 153.292 12.9787C150.031 12.9787 147.179 15.2196 147.179 19.4774V31.4065H144.619V11.2719H147.14V14.0095H147.222C148.502 12.1048 150.856 10.8386 153.747 10.8386C158.575 10.8312 161.221 13.6099 161.221 19.1599Z" fill="#263D39"></path>
<path d="M180.79 17.6553H178.23C178.23 14.6039 176.246 12.897 172.903 12.897C170.013 12.897 168.153 14.208 168.153 16.2285C168.153 18.6861 169.806 19.0035 173.44 19.8364C177.362 20.7066 181.409 21.4984 181.409 26.0587C181.409 29.5471 178.354 31.9224 173.565 31.9224C168.277 31.9224 165.18 29.308 165.099 24.632H167.702C167.702 27.9224 169.849 29.7824 173.565 29.7824C176.701 29.7824 178.848 28.3556 178.848 26.2156C178.848 23.5601 177.032 23.0857 172.623 22.1072C169.122 21.3117 165.601 20.6394 165.601 16.4377C165.601 13.0278 168.616 10.7682 172.911 10.7682C177.856 10.757 180.747 13.2556 180.79 17.6553Z" fill="#263D39"></path>
<path d="M200.111 25.4235H202.756C202.095 28.8708 199.161 31.9222 193.878 31.9222C187.89 31.9222 184.299 27.6383 184.299 20.9828C184.299 15.0406 187.8 10.7567 193.71 10.7567C198.418 10.7567 201.683 13.4944 202.589 17.9314C202.838 19.2124 202.951 20.5122 202.92 21.8157H186.898C187.022 27.1677 190.01 29.8232 193.878 29.8232C197.306 29.8232 199.492 28.0118 200.111 25.4235ZM186.941 19.7951H200.441C200.154 15.3133 197.469 12.8594 193.71 12.8594C189.874 12.8594 187.19 15.4738 186.941 19.7951Z" fill="#263D39"></path>
<path d="M218.733 0H216.97L210.122 11.481L205.788 4.97484H207.78L210.068 8.55284L212.974 3.6639C211.943 2.93187 210.694 2.53971 209.41 2.54344C206.08 2.53971 203.376 5.12797 203.372 8.32501C203.368 11.5221 206.064 14.1178 209.395 14.1215C212.725 14.1253 215.429 11.537 215.433 8.33995C215.433 7.61912 215.293 6.90203 215.021 6.22975L218.733 0Z" fill="#263D39"></path>
<path d="M14.6058 5.93472V30.0806H9.68013V5.93472H0V1.80396H24.2859V5.93472H14.6058Z" fill="#263D39"></path>
<path d="M34.0407 24.0036H38.8807C38.0987 27.6189 34.706 30.674 29.2006 30.674C22.7887 30.674 19.0225 26.2669 19.0225 19.7533C19.0225 13.7962 22.7459 9.30688 29.1189 9.30688C33.9201 9.30688 37.3945 11.9661 38.5539 16.179C38.9663 17.4489 39.1336 18.9578 39.1336 20.9036H23.6991C23.8664 25.4714 26.2631 27.3388 29.2006 27.3388C31.8891 27.3388 33.6283 25.9494 34.0407 24.0036ZM23.7808 17.927H34.4142C34.0835 14.3938 31.9319 12.6459 29.1189 12.6459C26.2631 12.6459 24.1971 14.4311 23.7808 17.927Z" fill="#263D39"></path>
<path d="M59.8441 17.2136V24.7618C59.8441 27.1446 60.0503 28.8141 60.381 30.0839H56.1206C55.9144 29.21 55.8327 28.2165 55.8327 27.2641H55.751C54.2219 29.4079 51.8603 30.5209 48.6777 30.5209C44.2928 30.5209 41.5615 27.9775 41.5615 24.5227C41.5615 21.2248 43.5886 19.081 49.6309 18.1697C51.3272 17.8933 53.8095 17.6543 55.2997 17.5721V16.7766C55.2997 13.7962 53.6033 12.6048 51.2027 12.6048C48.596 12.6048 47.1914 13.9941 47.0669 16.138H42.433C42.6393 12.3247 45.5378 9.30688 51.2027 9.30688C56.7393 9.30688 59.8441 11.9288 59.8441 17.2136ZM55.2919 20.5077C53.8835 20.5862 51.8564 20.7879 50.4518 21.0232C47.4326 21.5012 46.316 22.3752 46.316 24.2015C46.316 25.9905 47.6388 27.182 50.0394 27.182C51.4868 27.182 52.8952 26.745 53.8446 25.8299C54.9612 24.7169 55.2919 23.645 55.2919 21.5012V20.5077Z" fill="#263D39"></path>
<path d="M94.3966 17.6506V30.0802H89.681V18.0876C89.681 14.5133 88.2337 13.0829 85.8759 13.0829C83.1057 13.0829 81.4482 15.3462 81.4482 19.2006V30.084H76.7327V17.6095C76.7327 14.7486 75.4098 13.0829 72.9665 13.0829C70.1535 13.0829 68.5388 15.3873 68.5388 19.279V30.0802H63.8232V9.90451H68.3326V12.3284H68.4143C69.9045 10.3826 71.7642 9.43018 74.2465 9.43018C77.1412 9.43018 79.3784 10.7 80.4522 13.0829C81.9813 10.7785 84.0122 9.43018 87.1949 9.43018C91.6692 9.42644 94.3966 12.2089 94.3966 17.6506Z" fill="#263D39"></path>
</svg>