<svg version="1.1" id="Layer_1" xmlns="http://www.w3.org/2000/svg" xmlns:xlink="http://www.w3.org/1999/xlink" x="0px" y="0px"
	 width="100%" viewBox="0 0 604 594" enable-background="new 0 0 604 594" xml:space="preserve">
<path fill="#FFFFFF" opacity="1.000000" stroke="none" 
	d="
M390.000000,1.000003 
	C461.607819,1.000000 533.215637,1.000000 605.000000,1.000000 
	C605.000000,106.687492 605.000000,212.375092 604.643677,318.353882 
	C602.948120,309.662903 599.940491,301.334320 595.229187,293.515747 
	C588.311523,282.035675 579.591614,272.622650 567.250488,266.855286 
	C566.412292,266.463593 565.679688,264.366333 565.942017,263.325439 
	C569.033325,251.062363 570.205566,238.749557 568.036255,226.179108 
	C563.635254,200.676834 550.709229,181.336807 527.573120,169.079987 
	C525.621216,168.045898 524.206116,165.616470 523.040588,163.553406 
	C519.866089,157.934143 517.731201,151.550034 513.782959,146.582947 
	C505.937164,136.712646 494.957397,132.207108 482.474243,131.773865 
	C481.863129,125.764153 482.036133,119.851059 480.566895,114.378899 
	C475.163635,94.254547 460.379059,82.468712 439.629730,82.073975 
	C436.410156,82.012726 435.313385,80.707741 434.980316,77.805923 
	C433.709900,66.738258 432.414276,55.672318 430.981781,44.624702 
	C429.027618,29.554193 421.346710,17.807795 408.832306,9.623899 
	C403.118530,5.887332 396.311310,3.822860 390.000000,1.000003 
z"/>
<path fill="#26A8DF" opacity="1.000000" stroke="none" 
	d="
M389.531433,1.000003 
	C396.311310,3.822860 403.118530,5.887332 408.832306,9.623899 
	C421.346710,17.807795 429.027618,29.554193 430.981781,44.624702 
	C432.414276,55.672318 433.709900,66.738258 434.980316,77.805923 
	C435.313385,80.707741 436.410156,82.012726 439.629730,82.073975 
	C460.379059,82.468712 475.163635,94.254547 480.566895,114.378899 
	C482.036133,119.851059 481.863129,125.764153 482.474243,131.773865 
	C494.957397,132.207108 505.937164,136.712646 513.782959,146.582947 
	C517.731201,151.550034 519.866089,157.934143 523.040588,163.553406 
	C524.206116,165.616470 525.621216,168.045898 527.573120,169.079987 
	C550.709229,181.336807 563.635254,200.676834 568.036255,226.179108 
	C570.205566,238.749557 569.033325,251.062363 565.942017,263.325439 
	C565.679688,264.366333 566.412292,266.463593 567.250488,266.855286 
	C579.591614,272.622650 588.311523,282.035675 595.229187,293.515747 
	C599.940491,301.334320 602.948120,309.662903 604.643677,318.822510 
	C605.000000,325.354401 605.000000,331.708801 604.640625,338.714355 
	C604.168884,340.852448 604.267517,342.391907 603.912476,343.818359 
	C599.125244,363.047546 588.351379,378.501373 573.197144,390.863525 
	C563.865723,398.475647 553.915833,405.329773 544.221313,412.540802 
	C558.481628,422.971985 561.189758,426.555359 565.114868,438.092682 
	C570.720642,454.569763 564.317200,474.883728 550.138428,484.473969 
	C545.583496,487.554871 541.040222,490.754791 536.977356,494.436340 
	C531.626892,499.284546 527.301697,505.396637 521.564453,509.657623 
	C509.791016,518.401611 496.196716,521.836792 481.714935,518.681213 
	C472.821655,516.743408 464.967957,512.122009 457.463562,503.881622 
	C455.110992,513.334351 452.770294,521.536194 451.073761,529.869324 
	C449.083923,539.642883 444.680389,547.763855 437.211395,554.450928 
	C429.913177,560.985107 421.132050,563.217041 411.869781,565.196655 
	C377.439117,572.555542 343.099060,580.339905 308.738403,588.024353 
	C298.802551,590.246399 288.911560,592.669250 279.000000,595.000000 
	C274.643097,595.000000 270.286194,595.000000 265.291992,594.646912 
	C251.412674,592.605225 241.921143,584.985046 235.183533,574.183716 
	C228.003967,562.673828 218.655624,554.615356 205.473251,551.107788 
	C198.901535,559.967834 190.728683,566.811218 181.218124,571.896362 
	C162.677307,581.809692 143.362610,581.634277 123.561035,576.068420 
	C107.667351,571.600891 94.127998,553.143677 94.757301,536.959106 
	C95.157013,526.679199 97.541153,517.639343 103.865715,509.268768 
	C97.930870,508.131592 92.389954,507.021515 86.830566,506.013336 
	C66.923065,502.403168 47.532902,497.410614 31.659121,483.878113 
	C17.334276,471.666077 8.471596,456.293671 7.085525,437.337830 
	C5.662256,417.873322 9.867293,399.831268 22.048201,385.498047 
	C17.421982,378.147308 12.451344,371.556519 8.922125,364.267792 
	C5.509169,357.219116 3.580591,349.451691 1.000000,342.000000 
	C1.000000,333.312439 1.000000,324.624878 1.356338,315.291199 
	C3.291905,303.200134 8.010609,293.087952 14.682025,283.769287 
	C16.253445,281.574310 18.479868,279.224335 18.680105,276.803009 
	C19.082537,271.936676 17.801090,266.941589 18.101772,262.054230 
	C18.790627,250.857407 23.590824,241.059509 32.496582,234.611816 
	C37.715069,230.833710 39.372509,227.308090 39.127422,221.338882 
	C38.794460,213.229507 38.436565,204.937027 39.718575,196.985764 
	C42.019196,182.716873 50.126331,172.183289 63.826565,166.027847 
	C61.292107,158.471741 58.891232,151.081558 56.335178,143.745453 
	C52.034004,131.400665 47.820332,118.684586 50.248947,105.686127 
	C55.253193,78.902328 74.268074,62.635487 100.851616,61.254910 
	C108.312920,60.867416 115.920174,63.634487 123.489571,64.758629 
	C125.562759,65.066528 128.048706,65.292213 129.797424,64.436340 
	C132.235397,63.243122 134.157394,60.996426 136.301773,59.202454 
	C144.496002,52.347244 152.233612,44.835876 160.967941,38.756557 
	C191.820374,17.282469 225.963409,5.874963 263.869141,7.019129 
	C271.970215,7.263656 280.243713,6.800228 288.120453,8.313968 
	C300.243195,10.643690 312.149994,14.198371 324.034607,17.627831 
	C331.260468,19.712944 338.063049,21.667917 342.993011,13.577408 
	C343.453888,12.821062 344.514343,12.356516 345.382629,11.933495 
	C352.910553,8.266006 360.458221,4.639029 368.000000,1.000002 
	C375.020966,1.000000 382.041901,1.000000 389.531433,1.000003 
M511.316132,500.925598 
	C513.367371,499.503235 515.896790,498.463104 517.390015,496.594757 
	C525.427490,486.538391 535.963501,479.383789 545.577087,471.104523 
	C554.481567,463.435974 556.391052,452.471863 552.636047,441.276886 
	C548.952332,430.294647 541.087158,423.604340 529.466980,421.826721 
	C525.460815,421.213867 521.390381,421.020966 516.386353,420.544556 
	C518.592102,417.800720 519.929199,415.406342 521.907898,413.804779 
	C529.792236,407.423187 537.946350,401.376068 545.868530,395.040009 
	C555.472229,387.359009 565.942444,380.449341 574.283081,371.559692 
	C599.367004,344.824677 598.010071,308.886627 572.015015,285.405487 
	C565.719666,279.718903 558.616089,276.186005 549.901489,276.601685 
	C548.975647,276.645813 548.036194,276.402283 546.576050,276.230042 
	C547.471313,274.135468 548.131042,272.493561 548.867004,270.886566 
	C553.133301,261.570465 556.011292,251.917175 556.350525,241.585205 
	C557.198853,215.742233 542.638794,186.729050 514.297791,177.892044 
	C511.730865,177.091675 511.162323,175.758331 511.082336,173.247223 
	C510.461029,153.743118 492.770752,140.852310 473.858246,145.980286 
	C472.350586,146.389069 470.820190,146.714127 468.854309,147.184921 
	C468.854309,139.333817 468.954926,132.016693 468.834503,124.703224 
	C468.532684,106.372589 454.237366,93.363991 436.097351,95.126373 
	C432.229797,95.502113 428.473389,97.021683 424.438538,98.073540 
	C422.945221,84.224998 421.988403,70.447624 419.803131,56.867943 
	C418.423096,48.292030 416.825226,39.054688 412.518280,31.774515 
	C398.590942,8.232649 363.706512,7.256134 345.951080,29.290901 
	C343.574463,32.240353 341.183258,33.783222 337.556030,33.049080 
	C330.410309,31.602779 323.277710,30.087240 316.158813,28.513844 
	C303.678802,25.755566 291.340393,21.524832 278.719177,20.384565 
	C229.473129,15.935429 186.479767,30.748940 150.044235,64.425957 
	C144.818451,69.256111 138.857437,73.306396 133.123825,77.565697 
	C129.693497,80.113991 126.392426,80.188538 122.114510,78.259888 
	C106.246613,71.106041 90.753326,72.299507 77.101181,83.478027 
	C63.582661,94.547134 59.998878,109.221046 64.588745,125.816101 
	C67.245811,135.422928 70.488060,144.871078 73.586922,154.351425 
	C75.788666,161.087219 78.190727,167.757523 80.588371,174.703247 
	C79.274513,175.119110 78.521843,175.441849 77.736153,175.593567 
	C60.552299,178.912292 51.869576,189.400711 51.855145,206.901840 
	C51.846500,217.384018 51.853558,227.866196 51.853558,238.494522 
	C43.066982,241.560760 36.378269,246.925156 32.791782,255.641083 
	C29.150953,264.489075 30.250601,273.179169 34.109665,281.615540 
	C17.920103,296.537933 11.596030,314.736664 13.844601,336.243286 
	C16.077562,357.600647 27.372072,373.491882 44.173363,386.498383 
	C36.028168,389.807373 30.299351,394.703278 26.663246,401.818542 
	C19.556452,415.725342 17.591604,430.393341 21.755270,445.435242 
	C27.748734,467.087524 43.107834,480.216400 63.676373,486.688751 
	C78.510910,491.356781 94.102806,493.601349 109.330444,497.043823 
	C116.867813,498.747803 124.545547,500.196136 131.781754,505.382690 
	C128.626755,507.068390 126.196648,508.393921 123.742485,509.673370 
	C112.223473,515.678589 106.496208,526.589661 107.892921,539.900757 
	C109.096184,551.368225 117.434120,561.049011 129.359207,564.133057 
	C134.644836,565.500000 140.129807,566.495850 145.571350,566.790039 
	C167.439072,567.972351 184.156845,558.355469 196.653290,541.021362 
	C199.409790,537.197815 201.831741,536.689026 206.139221,537.725708 
	C223.823868,541.981873 236.865372,552.132446 246.387238,567.441589 
	C254.013580,579.703308 265.320374,584.254028 279.374420,581.178101 
	C323.234467,571.578674 367.086792,561.944031 410.931213,552.273376 
	C429.892792,548.091064 436.318054,540.839355 439.131561,521.870911 
	C441.339874,506.982788 447.644623,494.142548 459.546265,484.290894 
	C473.936859,509.191315 493.025818,511.142548 511.316132,500.925598 
z"/>
<path fill="#FFFFFF" opacity="1.000000" stroke="none" 
	d="
M279.468658,595.000000 
	C288.911560,592.669250 298.802551,590.246399 308.738403,588.024353 
	C343.099060,580.339905 377.439117,572.555542 411.869781,565.196655 
	C421.132050,563.217041 429.913177,560.985107 437.211395,554.450928 
	C444.680389,547.763855 449.083923,539.642883 451.073761,529.869324 
	C452.770294,521.536194 455.110992,513.334351 457.463562,503.881622 
	C464.967957,512.122009 472.821655,516.743408 481.714935,518.681213 
	C496.196716,521.836792 509.791016,518.401611 521.564453,509.657623 
	C527.301697,505.396637 531.626892,499.284546 536.977356,494.436340 
	C541.040222,490.754791 545.583496,487.554871 550.138428,484.473969 
	C564.317200,474.883728 570.720642,454.569763 565.114868,438.092682 
	C561.189758,426.555359 558.481628,422.971985 544.221313,412.540802 
	C553.915833,405.329773 563.865723,398.475647 573.197144,390.863525 
	C588.351379,378.501373 599.125244,363.047546 603.912476,343.818359 
	C604.267517,342.391907 604.168884,340.852448 604.640625,339.182770 
	C605.000000,424.269165 605.000000,509.538330 605.000000,595.000000 
	C496.645844,595.000000 388.291595,595.000000 279.468658,595.000000 
z"/>
<path fill="#FFFFFF" opacity="1.000000" stroke="none" 
	d="
M367.531342,1.000002 
	C360.458221,4.639029 352.910553,8.266006 345.382629,11.933495 
	C344.514343,12.356516 343.453888,12.821062 342.993011,13.577408 
	C338.063049,21.667917 331.260468,19.712944 324.034607,17.627831 
	C312.149994,14.198371 300.243195,10.643690 288.120453,8.313968 
	C280.243713,6.800228 271.970215,7.263656 263.869141,7.019129 
	C225.963409,5.874963 191.820374,17.282469 160.967941,38.756557 
	C152.233612,44.835876 144.496002,52.347244 136.301773,59.202454 
	C134.157394,60.996426 132.235397,63.243122 129.797424,64.436340 
	C128.048706,65.292213 125.562759,65.066528 123.489571,64.758629 
	C115.920174,63.634487 108.312920,60.867416 100.851616,61.254910 
	C74.268074,62.635487 55.253193,78.902328 50.248947,105.686127 
	C47.820332,118.684586 52.034004,131.400665 56.335178,143.745453 
	C58.891232,151.081558 61.292107,158.471741 63.826565,166.027847 
	C50.126331,172.183289 42.019196,182.716873 39.718575,196.985764 
	C38.436565,204.937027 38.794460,213.229507 39.127422,221.338882 
	C39.372509,227.308090 37.715069,230.833710 32.496582,234.611816 
	C23.590824,241.059509 18.790627,250.857407 18.101772,262.054230 
	C17.801090,266.941589 19.082537,271.936676 18.680105,276.803009 
	C18.479868,279.224335 16.253445,281.574310 14.682025,283.769287 
	C8.010609,293.087952 3.291905,303.200134 1.356338,314.822540 
	C1.000000,210.400589 1.000000,105.801170 1.000000,1.000000 
	C123.020821,1.000000 245.041748,1.000000 367.531342,1.000002 
z"/>
<path fill="#FFFFFF" opacity="1.000000" stroke="none" 
	d="
M1.000000,342.468658 
	C3.580591,349.451691 5.509169,357.219116 8.922125,364.267792 
	C12.451344,371.556519 17.421982,378.147308 22.048201,385.498047 
	C9.867293,399.831268 5.662256,417.873322 7.085525,437.337830 
	C8.471596,456.293671 17.334276,471.666077 31.659121,483.878113 
	C47.532902,497.410614 66.923065,502.403168 86.830566,506.013336 
	C92.389954,507.021515 97.930870,508.131592 103.865715,509.268768 
	C97.541153,517.639343 95.157013,526.679199 94.757301,536.959106 
	C94.127998,553.143677 107.667351,571.600891 123.561035,576.068420 
	C143.362610,581.634277 162.677307,581.809692 181.218124,571.896362 
	C190.728683,566.811218 198.901535,559.967834 205.473251,551.107788 
	C218.655624,554.615356 228.003967,562.673828 235.183533,574.183716 
	C241.921143,584.985046 251.412674,592.605225 264.827362,594.646912 
	C177.074493,595.000000 89.148994,595.000000 1.000000,595.000000 
	C1.000000,510.979248 1.000000,426.958282 1.000000,342.468658 
z"/>
<path fill="#131C2A" opacity="1.000000" stroke="none" 
	d="
M510.984009,501.087433 
	C493.025818,511.142548 473.936859,509.191315 459.546265,484.290894 
	C447.644623,494.142548 441.339874,506.982788 439.131561,521.870911 
	C436.318054,540.839355 429.892792,548.091064 410.931213,552.273376 
	C367.086792,561.944031 323.234467,571.578674 279.374420,581.178101 
	C265.320374,584.254028 254.013580,579.703308 246.387238,567.441589 
	C236.865372,552.132446 223.823868,541.981873 206.139221,537.725708 
	C201.831741,536.689026 199.409790,537.197815 196.653290,541.021362 
	C184.156845,558.355469 167.439072,567.972351 145.571350,566.790039 
	C140.129807,566.495850 134.644836,565.500000 129.359207,564.133057 
	C117.434120,561.049011 109.096184,551.368225 107.892921,539.900757 
	C106.496208,526.589661 112.223473,515.678589 123.742485,509.673370 
	C126.196648,508.393921 128.626755,507.068390 131.781754,505.382690 
	C124.545547,500.196136 116.867813,498.747803 109.330444,497.043823 
	C94.102806,493.601349 78.510910,491.356781 63.676373,486.688751 
	C43.107834,480.216400 27.748734,467.087524 21.755270,445.435242 
	C17.591604,430.393341 19.556452,415.725342 26.663246,401.818542 
	C30.299351,394.703278 36.028168,389.807373 44.173363,386.498383 
	C27.372072,373.491882 16.077562,357.600647 13.844601,336.243286 
	C11.596030,314.736664 17.920103,296.537933 34.109665,281.615540 
	C30.250601,273.179169 29.150953,264.489075 32.791782,255.641083 
	C36.378269,246.925156 43.066982,241.560760 51.853558,238.494522 
	C51.853558,227.866196 51.846500,217.384018 51.855145,206.901840 
	C51.869576,189.400711 60.552299,178.912292 77.736153,175.593567 
	C78.521843,175.441849 79.274513,175.119110 80.588371,174.703247 
	C78.190727,167.757523 75.788666,161.087219 73.586922,154.351425 
	C70.488060,144.871078 67.245811,135.422928 64.588745,125.816101 
	C59.998878,109.221046 63.582661,94.547134 77.101181,83.478027 
	C90.753326,72.299507 106.246613,71.106041 122.114510,78.259888 
	C126.392426,80.188538 129.693497,80.113991 133.123825,77.565697 
	C138.857437,73.306396 144.818451,69.256111 150.044235,64.425957 
	C186.479767,30.748940 229.473129,15.935429 278.719177,20.384565 
	C291.340393,21.524832 303.678802,25.755566 316.158813,28.513844 
	C323.277710,30.087240 330.410309,31.602779 337.556030,33.049080 
	C341.183258,33.783222 343.574463,32.240353 345.951080,29.290901 
	C363.706512,7.256134 398.590942,8.232649 412.518280,31.774515 
	C416.825226,39.054688 418.423096,48.292030 419.803131,56.867943 
	C421.988403,70.447624 422.945221,84.224998 424.438538,98.073540 
	C428.473389,97.021683 432.229797,95.502113 436.097351,95.126373 
	C454.237366,93.363991 468.532684,106.372589 468.834503,124.703224 
	C468.954926,132.016693 468.854309,139.333817 468.854309,147.184921 
	C470.820190,146.714127 472.350586,146.389069 473.858246,145.980286 
	C492.770752,140.852310 510.461029,153.743118 511.082336,173.247223 
	C511.162323,175.758331 511.730865,177.091675 514.297791,177.892044 
	C542.638794,186.729050 557.198853,215.742233 556.350525,241.585205 
	C556.011292,251.917175 553.133301,261.570465 548.867004,270.886566 
	C548.131042,272.493561 547.471313,274.135468 546.576050,276.230042 
	C548.036194,276.402283 548.975647,276.645813 549.901489,276.601685 
	C558.616089,276.186005 565.719666,279.718903 572.015015,285.405487 
	C598.010071,308.886627 599.367004,344.824677 574.283081,371.559692 
	C565.942444,380.449341 555.472229,387.359009 545.868530,395.040009 
	C537.946350,401.376068 529.792236,407.423187 521.907898,413.804779 
	C519.929199,415.406342 518.592102,417.800720 516.386353,420.544556 
	C521.390381,421.020966 525.460815,421.213867 529.466980,421.826721 
	C541.087158,423.604340 548.952332,430.294647 552.636047,441.276886 
	C556.391052,452.471863 554.481567,463.435974 545.577087,471.104523 
	C535.963501,479.383789 525.427490,486.538391 517.390015,496.594757 
	C515.896790,498.463104 513.367371,499.503235 510.984009,501.087433 
M499.149292,472.783630 
	C499.745667,471.837555 500.342041,470.891479 500.906647,469.916168 
	C500.906647,469.916168 500.880402,469.880402 501.496094,469.564026 
	C502.876709,466.505127 505.423859,463.345490 501.270935,460.161560 
	C509.878540,459.975952 517.492126,457.307281 524.592834,450.619568 
	C521.706909,450.403015 519.578857,450.494904 517.571960,450.045532 
	C511.601929,448.708618 505.368958,447.893463 499.803040,445.539886 
	C488.116302,440.598083 483.975983,431.073181 486.769501,418.636322 
	C489.896606,404.714417 498.325562,394.405914 509.199402,385.976685 
	C519.982056,377.618073 531.312622,369.969360 542.173218,361.707367 
	C551.272705,354.785095 559.424561,346.979187 562.338074,335.237549 
	C564.978760,324.595459 559.935852,311.766876 550.987793,306.762695 
	C550.987793,311.109161 551.373657,315.452789 550.912537,319.704590 
	C549.720886,330.691345 540.948669,336.606537 530.665100,333.692078 
	C517.335266,329.914307 506.102356,315.120789 505.803314,301.245026 
	C505.597382,291.689209 509.529968,283.484070 513.682373,275.291138 
	C517.289246,268.174500 521.325256,261.221588 524.278564,253.839096 
	C529.849731,239.912949 527.721130,226.679474 518.665588,214.771332 
	C514.848816,209.752258 509.742126,206.378784 504.232635,205.323120 
	C506.182800,212.085342 509.183167,218.606049 509.732727,225.327164 
	C510.509247,234.823883 500.513672,239.998718 492.331726,235.090637 
	C491.254639,234.444534 490.207489,233.748520 488.522095,232.679611 
	C489.019745,245.053223 482.577209,251.631500 472.665192,254.413651 
	C473.830475,261.539795 475.722839,268.189240 475.787323,274.856384 
	C475.855225,281.881409 472.282013,287.898590 465.264374,290.413055 
	C458.515289,292.831268 452.896729,289.814484 448.222290,284.980591 
	C442.883362,279.459473 440.640625,272.990875 443.442810,264.233826 
	C437.805969,268.445587 433.855164,272.806885 433.264069,278.502533 
	C432.664612,284.278656 433.478699,290.299103 434.369812,296.105713 
	C435.321472,302.306763 435.767731,308.005280 430.265381,312.524048 
	C429.502289,313.150787 428.976318,314.936951 429.290710,315.864288 
	C431.400726,322.088776 433.767792,328.226166 435.487488,332.868927 
	C438.855774,333.034607 441.673615,332.321899 443.136902,333.417816 
	C446.450348,335.899445 447.692200,335.011322 449.642273,331.870056 
	C450.439819,330.585297 454.272034,329.620209 455.446014,330.409698 
	C460.027924,333.490753 463.182373,331.620758 466.337616,328.463196 
	C472.883606,321.912415 481.037231,318.103149 489.723145,315.667053 
	C500.371246,312.680664 511.288544,320.294647 512.904053,331.232086 
	C514.471069,341.841248 506.434814,352.351105 495.765045,352.959106 
	C487.155304,353.449799 478.524689,353.745575 470.133057,350.465057 
	C466.622528,349.092651 462.749817,349.012177 460.471710,353.739868 
	C459.938477,354.846436 456.606049,354.858826 454.552185,354.898956 
	C452.851410,354.932190 450.150513,353.427826 449.611633,354.062958 
	C447.928680,356.046722 446.131104,358.274292 448.044220,361.561584 
	C451.722382,367.881653 454.898804,374.492615 458.322845,380.962006 
	C464.312439,392.278839 470.796631,403.362946 476.205444,414.949860 
	C481.390350,426.057037 479.276978,432.859741 469.836609,440.331055 
	C466.193207,443.214478 462.351624,445.847626 457.535400,449.374695 
	C460.493073,448.888458 462.114868,448.622986 463.736267,448.355103 
	C469.082275,447.471802 474.325104,447.285645 479.227386,450.231903 
	C483.489563,452.793488 487.810211,455.257721 491.744110,458.368713 
	C484.478943,463.798706 483.499451,466.944244 487.701691,472.994873 
	C488.021912,473.085846 488.348297,473.138519 488.963013,473.833496 
	C492.621613,478.735107 495.418182,474.760010 499.149292,472.783630 
M478.927032,175.767532 
	C462.727478,185.843246 454.748779,202.795029 458.503143,217.463318 
	C465.497559,217.463318 472.183929,217.463318 478.995300,217.463318 
	C473.753571,203.471588 472.211517,189.658310 480.632050,175.924622 
	C480.627075,175.692947 480.622101,175.461258 480.617126,175.229599 
	C480.273102,175.345901 479.929077,175.462219 478.927032,175.767532 
M197.620712,506.048553 
	C209.475693,509.565643 221.752945,512.079041 233.082306,516.845520 
	C248.370834,523.277649 260.084198,534.625916 268.846497,548.786377 
	C270.848755,552.022095 272.936890,553.129517 276.955109,552.122498 
	C288.965271,549.112915 301.112762,546.651184 313.207153,543.977722 
	C322.364471,541.953430 331.522552,539.932556 340.627747,537.921753 
	C340.016815,534.192932 339.512360,531.114075 339.190552,527.689514 
	C339.190552,527.689514 339.316772,527.319580 340.114105,527.226135 
	C359.119659,523.117004 378.146240,519.098938 397.092621,514.733276 
	C398.683411,514.366699 400.530365,511.833801 400.917847,510.020905 
	C405.826904,487.052704 416.980408,467.816254 435.207642,453.000732 
	C444.492920,445.453430 454.363586,438.620270 464.052887,431.578857 
	C468.420197,428.405029 469.260559,424.491241 467.028717,419.823517 
	C464.305145,414.127319 461.459198,408.488586 458.603119,402.856995 
	C448.755005,383.438660 438.044220,364.406830 429.186188,344.547943 
	C410.022858,301.585358 401.589417,255.742310 396.155579,209.404251 
	C390.731506,163.149689 386.592438,116.744835 381.815399,70.413567 
	C381.234375,64.778259 380.190216,59.190716 379.321228,53.314335 
	C377.970398,53.875614 377.426361,53.965836 377.082977,54.277275 
	C376.607819,54.708225 376.186127,55.259159 375.909576,55.838882 
	C372.355164,63.289913 365.998779,67.339455 358.540314,69.863708 
	C347.546814,73.584351 336.193390,73.868187 325.022888,71.430420 
	C313.355988,68.884331 301.967682,65.089844 290.368835,62.197079 
	C272.807587,57.817303 255.088364,58.196552 236.679520,60.763126 
	C236.152573,59.740719 235.177460,58.720173 235.173218,57.695599 
	C235.150024,52.108616 232.448410,51.644184 227.760834,52.955944 
	C204.520264,59.459530 184.627106,71.520241 167.253693,88.150833 
	C156.846039,98.113495 145.226807,106.513092 130.768997,109.429718 
	C124.376938,110.719208 117.723267,111.371277 112.066261,105.862526 
	C108.106216,102.006264 100.655930,102.058868 96.648232,104.913383 
	C92.100815,108.152306 90.815903,112.732864 92.928047,119.159531 
	C97.749794,133.830780 102.588814,148.497360 107.575653,163.113007 
	C111.582901,174.857605 115.817566,186.524628 120.369675,199.410309 
	C117.503510,199.270966 114.851822,199.948990 113.781853,198.943619 
	C110.092171,195.476746 108.080322,197.798080 106.279633,200.615860 
	C104.776772,202.967606 103.368980,203.626953 101.112717,201.708755 
	C98.129646,199.172607 96.080421,200.501419 93.469864,202.859970 
	C91.537964,204.605362 88.413887,205.182571 85.715469,205.860672 
	C84.474327,206.172577 82.980553,205.479202 81.543884,205.231781 
	C81.543884,214.690506 81.543884,223.652588 81.543884,232.614685 
	C82.190231,233.075500 82.836578,233.536301 83.482933,233.997116 
	C85.246140,231.577026 86.685997,228.802139 88.854042,226.826263 
	C91.587990,224.334625 95.077705,222.489456 98.692505,225.252487 
	C101.894577,227.700043 103.579224,226.074417 105.710548,223.752075 
	C106.723961,222.647873 109.464546,221.459824 110.126083,221.974960 
	C114.151993,225.109787 116.455757,223.448944 119.173973,220.074097 
	C122.203354,216.312881 126.587265,217.393585 128.107605,221.996185 
	C133.943466,239.663681 139.771683,257.334167 145.476822,275.044098 
	C147.425018,281.091705 149.002823,287.258575 150.361725,292.013000 
	C147.159195,293.428406 143.844284,293.869904 142.523483,295.728485 
	C140.752060,298.221191 139.670883,298.250000 137.383957,296.979034 
	C134.526138,295.390869 132.258041,295.593994 129.521118,298.297577 
	C127.598923,300.196381 123.765167,301.119171 120.897964,300.912323 
	C113.852760,300.404022 106.872810,298.991272 99.872726,297.208160 
	C94.079437,279.201630 75.303894,264.727203 61.419975,267.812683 
	C70.319038,272.819946 75.397591,280.629150 78.016403,290.004883 
	C79.476433,295.231995 80.022957,300.714294 80.915070,306.813873 
	C77.397835,311.915192 77.375084,317.439697 78.287262,323.300751 
	C75.425529,327.058075 73.467140,331.842529 67.659073,332.122681 
	C60.595314,332.463440 55.004635,327.406281 54.102928,318.992706 
	C53.587833,314.186493 54.009712,309.279816 54.009712,304.418396 
	C53.400955,304.055969 52.792202,303.693542 52.183445,303.331116 
	C51.315178,304.744598 50.604496,306.289276 49.554016,307.551056 
	C40.115902,318.887604 39.742416,337.953339 49.553772,350.781982 
	C53.637566,356.121704 59.075325,360.483398 64.174736,364.974945 
	C71.157440,371.125336 79.049911,376.365662 85.400558,383.084778 
	C97.755547,396.156647 96.917778,417.258820 84.388168,430.201569 
	C75.422173,439.463196 64.592018,438.350708 57.880020,427.236664 
	C55.699474,423.626038 54.273640,419.559601 52.473362,415.637939 
	C44.785084,431.788147 49.314533,446.745636 64.646965,455.430145 
	C67.949036,457.300476 71.505630,459.053986 75.167053,459.898315 
	C89.251900,463.146484 103.445526,465.919189 117.562866,469.031250 
	C130.490524,471.881012 143.074539,475.592316 152.871490,485.284882 
	C168.532394,500.778961 167.475418,515.114807 149.594070,528.153870 
	C145.842697,530.889343 141.774551,533.190308 137.852371,535.691528 
	C137.911682,536.200623 137.970978,536.709717 138.030289,537.218811 
	C143.420380,537.218811 148.919632,537.907776 154.177750,537.074768 
	C164.982712,535.362915 171.403442,527.499512 176.656555,518.776672 
	C180.712158,512.042175 186.470963,508.663727 194.092438,507.842834 
	C195.033051,507.741547 195.873825,506.713165 197.620712,506.048553 
z"/>
<path fill="#D1000E" opacity="1.000000" stroke="none" 
	d="
M339.316772,527.319580 
	C339.316772,527.319580 339.190552,527.689514 338.685730,527.829102 
	C319.009277,532.103760 299.814789,536.137695 280.688629,540.473267 
	C277.502014,541.195557 275.958679,540.426453 274.116272,537.934631 
	C259.724426,518.470581 240.850830,505.508392 217.227112,499.898499 
	C206.240067,497.289398 195.045975,495.545166 184.078918,492.864136 
	C181.453369,492.222290 178.276871,489.856445 177.286545,487.478546 
	C175.955292,484.281982 176.091431,480.279938 176.304855,476.665405 
	C177.931564,449.116119 180.907333,421.665924 179.271027,393.944489 
	C177.597626,365.594269 173.976730,337.552002 165.960922,310.377350 
	C154.441360,271.324463 141.951538,232.550735 129.404709,193.810440 
	C121.309433,168.814987 112.358833,144.096771 103.837708,119.238503 
	C103.296486,117.659592 103.155083,115.943619 102.680260,113.547539 
	C104.579933,114.211578 105.645531,114.308289 106.335762,114.867943 
	C113.308075,120.521233 121.398560,122.415474 129.801529,120.086357 
	C138.208298,117.756203 147.063416,115.365555 154.256821,110.728500 
	C165.090775,103.744652 174.648224,94.781181 184.751968,86.663811 
	C200.179504,74.269318 217.307800,65.451294 236.936310,62.312542 
	C237.533127,66.337639 237.947006,69.959335 238.730682,73.499168 
	C244.417282,99.185837 250.253937,124.839417 255.898331,150.535263 
	C264.273865,188.664490 272.488708,226.828995 280.852478,264.960815 
	C285.779938,287.425873 290.942780,309.839386 295.857727,332.307129 
	C303.634918,367.859070 311.281403,403.439606 319.005676,439.003143 
	C323.675385,460.503021 328.300323,482.013214 333.125702,503.478271 
	C334.925568,511.484680 337.238037,519.375854 339.316772,527.319580 
M229.184158,375.161469 
	C227.696686,374.421661 226.257828,373.554962 224.713593,372.963257 
	C216.317230,369.745911 206.480896,371.969727 200.356445,378.397797 
	C193.907196,385.166779 192.225708,395.018005 196.086731,403.412598 
	C200.013275,411.949646 208.504745,417.259399 217.628357,416.882629 
	C226.959442,416.497314 235.072845,410.358978 238.240158,401.288422 
	C241.445312,392.109497 238.364716,382.740356 229.184158,375.161469 
M218.214005,284.464050 
	C211.398880,272.650391 197.831375,268.756683 186.605728,275.392822 
	C175.899185,281.722107 172.374664,295.781525 178.767380,306.660278 
	C184.625748,316.629730 197.386414,320.498688 207.850555,315.478149 
	C219.263885,310.002136 223.617126,297.704163 218.214005,284.464050 
M166.170944,175.743179 
	C153.784012,177.631943 144.779739,188.638702 146.211121,200.141937 
	C147.812943,213.014618 158.866455,222.220001 171.065048,220.840332 
	C183.235809,219.463821 192.619232,208.546494 191.681641,196.853531 
	C190.646866,183.948532 180.149124,174.906311 166.170944,175.743179 
z"/>
<path fill="#FE0013" opacity="1.000000" stroke="none" 
	d="
M339.715454,527.272827 
	C337.238037,519.375854 334.925568,511.484680 333.125702,503.478271 
	C328.300323,482.013214 323.675385,460.503021 319.005676,439.003143 
	C311.281403,403.439606 303.634918,367.859070 295.857727,332.307129 
	C290.942780,309.839386 285.779938,287.425873 280.852478,264.960815 
	C272.488708,226.828995 264.273865,188.664490 255.898331,150.535263 
	C250.253937,124.839417 244.417282,99.185837 238.730682,73.499168 
	C237.947006,69.959335 237.533127,66.337639 237.057495,62.149612 
	C237.166962,61.545376 237.351837,61.183887 237.351837,61.183887 
	C255.088364,58.196552 272.807587,57.817303 290.368835,62.197079 
	C301.967682,65.089844 313.355988,68.884331 325.022888,71.430420 
	C336.193390,73.868187 347.546814,73.584351 358.540314,69.863708 
	C365.998779,67.339455 372.355164,63.289913 375.909576,55.838882 
	C376.186127,55.259159 376.607819,54.708225 377.082977,54.277275 
	C377.426361,53.965836 377.970398,53.875614 379.321228,53.314335 
	C380.190216,59.190716 381.234375,64.778259 381.815399,70.413567 
	C386.592438,116.744835 390.731506,163.149689 396.155579,209.404251 
	C401.589417,255.742310 410.022858,301.585358 429.186188,344.547943 
	C438.044220,364.406830 448.755005,383.438660 458.603119,402.856995 
	C461.459198,408.488586 464.305145,414.127319 467.028717,419.823517 
	C469.260559,424.491241 468.420197,428.405029 464.052887,431.578857 
	C454.363586,438.620270 444.492920,445.453430 435.207642,453.000732 
	C416.980408,467.816254 405.826904,487.052704 400.917847,510.020905 
	C400.530365,511.833801 398.683411,514.366699 397.092621,514.733276 
	C378.146240,519.098938 359.119659,523.117004 339.715454,527.272827 
M411.856445,362.081787 
	C412.058472,360.933746 412.348114,359.793335 412.448608,358.636505 
	C413.275757,349.115479 409.689697,341.572144 401.564453,336.672974 
	C393.413177,331.758118 384.885345,332.059448 377.103699,337.481079 
	C369.364807,342.873016 365.988770,350.587769 367.719299,360.059662 
	C369.632263,370.530304 377.668488,377.726562 388.292023,378.802277 
	C398.217499,379.807312 407.567505,373.409729 411.856445,362.081787 
M348.173340,135.638214 
	C347.352753,135.777863 346.516296,135.856796 345.713959,136.066299 
	C333.146362,139.347763 325.929840,151.817017 329.346344,164.321579 
	C332.630859,176.343079 345.521179,183.412338 357.681671,179.861115 
	C368.128387,176.810379 375.346832,165.702286 373.711548,155.193619 
	C371.775909,142.754959 362.257416,135.164581 348.173340,135.638214 
M345.839264,246.513931 
	C340.630615,256.663055 341.964935,267.341675 349.339813,274.528748 
	C356.581390,281.585938 367.824585,282.972473 376.591858,277.889496 
	C384.463959,273.325531 388.943512,264.380341 387.788147,255.531784 
	C386.578918,246.270798 379.913300,238.581177 371.135803,236.321198 
	C361.589142,233.863205 352.735809,237.252548 345.839264,246.513931 
z"/>
<path fill="#12131F" opacity="1.000000" stroke="none" 
	d="
M237.015686,60.973507 
	C237.351837,61.183887 237.166962,61.545376 237.045776,61.708305 
	C217.307800,65.451294 200.179504,74.269318 184.751968,86.663811 
	C174.648224,94.781181 165.090775,103.744652 154.256821,110.728500 
	C147.063416,115.365555 138.208298,117.756203 129.801529,120.086357 
	C121.398560,122.415474 113.308075,120.521233 106.335762,114.867943 
	C105.645531,114.308289 104.579933,114.211578 102.680260,113.547539 
	C103.155083,115.943619 103.296486,117.659592 103.837708,119.238503 
	C112.358833,144.096771 121.309433,168.814987 129.404709,193.810440 
	C141.951538,232.550735 154.441360,271.324463 165.960922,310.377350 
	C173.976730,337.552002 177.597626,365.594269 179.271027,393.944489 
	C180.907333,421.665924 177.931564,449.116119 176.304855,476.665405 
	C176.091431,480.279938 175.955292,484.281982 177.286545,487.478546 
	C178.276871,489.856445 181.453369,492.222290 184.078918,492.864136 
	C195.045975,495.545166 206.240067,497.289398 217.227112,499.898499 
	C240.850830,505.508392 259.724426,518.470581 274.116272,537.934631 
	C275.958679,540.426453 277.502014,541.195557 280.688629,540.473267 
	C299.814789,536.137695 319.009277,532.103760 338.594421,528.001953 
	C339.512360,531.114075 340.016815,534.192932 340.627747,537.921753 
	C331.522552,539.932556 322.364471,541.953430 313.207153,543.977722 
	C301.112762,546.651184 288.965271,549.112915 276.955109,552.122498 
	C272.936890,553.129517 270.848755,552.022095 268.846497,548.786377 
	C260.084198,534.625916 248.370834,523.277649 233.082306,516.845520 
	C221.752945,512.079041 209.475693,509.565643 196.786194,506.048889 
	C191.070389,505.072052 186.136993,504.299988 181.318451,503.075867 
	C170.626343,500.359650 166.007553,494.850586 166.099304,483.917999 
	C166.189896,473.124695 167.017487,462.336731 167.558746,451.548309 
	C168.050323,441.750549 168.810791,431.957611 168.913925,422.156860 
	C168.933014,420.342072 166.609222,418.217163 164.875580,416.865295 
	C164.428665,416.516785 161.820465,418.301697 160.727753,419.560364 
	C158.804550,421.775513 156.673019,422.917694 154.309753,420.924469 
	C150.353958,417.588165 147.095734,419.515472 144.429031,422.238037 
	C137.920670,428.882629 129.843170,432.742859 121.258987,435.416199 
	C110.312370,438.825287 99.046539,431.621674 97.164116,420.629059 
	C95.276321,409.605103 103.306946,398.885162 114.554482,398.166260 
	C123.156647,397.616455 131.794022,397.451935 140.131897,400.840973 
	C143.345398,402.147095 146.895538,402.004608 149.027161,398.015778 
	C150.708160,394.870178 153.155396,394.922516 156.177551,396.635406 
	C157.411530,397.334778 159.696548,397.194641 161.017654,396.505402 
	C163.455078,395.233704 165.533859,393.274658 168.606369,390.968201 
	C168.134262,385.310516 167.542221,378.215576 166.956589,370.695679 
	C164.485947,351.735535 161.386353,333.327454 156.138718,314.273560 
	C153.163330,319.022522 150.256760,320.288086 146.140060,317.404541 
	C145.440521,316.914581 142.709122,318.024689 141.993652,319.107391 
	C140.015747,322.100586 137.547760,323.133667 135.004120,320.763000 
	C131.974258,317.939148 128.599045,319.305756 127.018944,320.923981 
	C120.207237,327.900055 111.630081,331.707611 102.638733,335.741211 
	C89.342041,337.169403 82.207848,333.303406 78.936081,323.156006 
	C77.375084,317.439697 77.397835,311.915192 81.252060,306.293152 
	C86.295219,299.926239 92.604012,297.821045 99.866615,297.942291 
	C106.872810,298.991272 113.852760,300.404022 120.897964,300.912323 
	C123.765167,301.119171 127.598923,300.196381 129.521118,298.297577 
	C132.258041,295.593994 134.526138,295.390869 137.383957,296.979034 
	C139.670883,298.250000 140.752060,298.221191 142.523483,295.728485 
	C143.844284,293.869904 147.159195,293.428406 150.361725,292.013000 
	C149.002823,287.258575 147.425018,281.091705 145.476822,275.044098 
	C139.771683,257.334167 133.943466,239.663681 128.107605,221.996185 
	C126.587265,217.393585 122.203354,216.312881 119.173973,220.074097 
	C116.455757,223.448944 114.151993,225.109787 110.126083,221.974960 
	C109.464546,221.459824 106.723961,222.647873 105.710548,223.752075 
	C103.579224,226.074417 101.894577,227.700043 98.692505,225.252487 
	C95.077705,222.489456 91.587990,224.334625 88.854042,226.826263 
	C86.685997,228.802139 85.246140,231.577026 83.482933,233.997116 
	C82.836578,233.536301 82.190231,233.075500 81.543884,232.614685 
	C81.543884,223.652588 81.543884,214.690506 81.543884,205.231781 
	C82.980553,205.479202 84.474327,206.172577 85.715469,205.860672 
	C88.413887,205.182571 91.537964,204.605362 93.469864,202.859970 
	C96.080421,200.501419 98.129646,199.172607 101.112717,201.708755 
	C103.368980,203.626953 104.776772,202.967606 106.279633,200.615860 
	C108.080322,197.798080 110.092171,195.476746 113.781853,198.943619 
	C114.851822,199.948990 117.503510,199.270966 120.369675,199.410309 
	C115.817566,186.524628 111.582901,174.857605 107.575653,163.113007 
	C102.588814,148.497360 97.749794,133.830780 92.928047,119.159531 
	C90.815903,112.732864 92.100815,108.152306 96.648232,104.913383 
	C100.655930,102.058868 108.106216,102.006264 112.066261,105.862526 
	C117.723267,111.371277 124.376938,110.719208 130.768997,109.429718 
	C145.226807,106.513092 156.846039,98.113495 167.253693,88.150833 
	C184.627106,71.520241 204.520264,59.459530 227.760834,52.955944 
	C232.448410,51.644184 235.150024,52.108616 235.173218,57.695599 
	C235.177460,58.720173 236.152573,59.740719 237.015686,60.973507 
z"/>
<path fill="#26A7DE" opacity="1.000000" stroke="none" 
	d="
M492.105011,457.764984 
	C487.810211,455.257721 483.489563,452.793488 479.227386,450.231903 
	C474.325104,447.285645 469.082275,447.471802 463.736267,448.355103 
	C462.114868,448.622986 460.493073,448.888458 457.535400,449.374695 
	C462.351624,445.847626 466.193207,443.214478 469.836609,440.331055 
	C479.276978,432.859741 481.390350,426.057037 476.205444,414.949860 
	C470.796631,403.362946 464.312439,392.278839 458.322845,380.962006 
	C454.898804,374.492615 451.722382,367.881653 448.044220,361.561584 
	C446.131104,358.274292 447.928680,356.046722 449.611633,354.062958 
	C450.150513,353.427826 452.851410,354.932190 454.552185,354.898956 
	C456.606049,354.858826 459.938477,354.846436 460.471710,353.739868 
	C462.749817,349.012177 466.622528,349.092651 470.133057,350.465057 
	C478.524689,353.745575 487.155304,353.449799 495.765045,352.959106 
	C506.434814,352.351105 514.471069,341.841248 512.904053,331.232086 
	C511.288544,320.294647 500.371246,312.680664 489.723145,315.667053 
	C481.037231,318.103149 472.883606,321.912415 466.337616,328.463196 
	C463.182373,331.620758 460.027924,333.490753 455.446014,330.409698 
	C454.272034,329.620209 450.439819,330.585297 449.642273,331.870056 
	C447.692200,335.011322 446.450348,335.899445 443.136902,333.417816 
	C441.673615,332.321899 438.855774,333.034607 435.487488,332.868927 
	C433.767792,328.226166 431.400726,322.088776 429.290710,315.864288 
	C428.976318,314.936951 429.502289,313.150787 430.265381,312.524048 
	C435.767731,308.005280 435.321472,302.306763 434.369812,296.105713 
	C433.478699,290.299103 432.664612,284.278656 433.264069,278.502533 
	C433.855164,272.806885 437.805969,268.445587 443.442810,264.233826 
	C440.640625,272.990875 442.883362,279.459473 448.222290,284.980591 
	C452.896729,289.814484 458.515289,292.831268 465.264374,290.413055 
	C472.282013,287.898590 475.855225,281.881409 475.787323,274.856384 
	C475.722839,268.189240 473.830475,261.539795 472.665192,254.413651 
	C482.577209,251.631500 489.019745,245.053223 488.522095,232.679611 
	C490.207489,233.748520 491.254639,234.444534 492.331726,235.090637 
	C500.513672,239.998718 510.509247,234.823883 509.732727,225.327164 
	C509.183167,218.606049 506.182800,212.085342 504.232635,205.323120 
	C509.742126,206.378784 514.848816,209.752258 518.665588,214.771332 
	C527.721130,226.679474 529.849731,239.912949 524.278564,253.839096 
	C521.325256,261.221588 517.289246,268.174500 513.682373,275.291138 
	C509.529968,283.484070 505.597382,291.689209 505.803314,301.245026 
	C506.102356,315.120789 517.335266,329.914307 530.665100,333.692078 
	C540.948669,336.606537 549.720886,330.691345 550.912537,319.704590 
	C551.373657,315.452789 550.987793,311.109161 550.987793,306.762695 
	C559.935852,311.766876 564.978760,324.595459 562.338074,335.237549 
	C559.424561,346.979187 551.272705,354.785095 542.173218,361.707367 
	C531.312622,369.969360 519.982056,377.618073 509.199402,385.976685 
	C498.325562,394.405914 489.896606,404.714417 486.769501,418.636322 
	C483.975983,431.073181 488.116302,440.598083 499.803040,445.539886 
	C505.368958,447.893463 511.601929,448.708618 517.571960,450.045532 
	C519.578857,450.494904 521.706909,450.403015 524.592834,450.619568 
	C517.492126,457.307281 509.878540,459.975952 500.727142,460.288330 
	C497.490570,459.531738 494.797791,458.648346 492.105011,457.764984 
z"/>
<path fill="#26A7DE" opacity="1.000000" stroke="none" 
	d="
M78.611671,323.228394 
	C82.207848,333.303406 89.342041,337.169403 102.656494,336.180481 
	C103.741035,344.084961 104.156570,351.632324 108.937241,357.933350 
	C112.637459,362.810272 117.446312,366.194519 123.766190,365.575470 
	C130.176392,364.947632 134.104736,360.580688 136.462265,354.861084 
	C139.631073,347.173187 139.024979,339.853882 132.959015,332.778870 
	C134.674286,333.052856 135.514038,333.063477 136.266083,333.325745 
	C146.959717,337.054291 152.579178,344.738831 154.007507,355.840424 
	C155.231720,365.355469 159.234482,369.940308 166.950165,371.120667 
	C167.542221,378.215576 168.134262,385.310516 168.606369,390.968201 
	C165.533859,393.274658 163.455078,395.233704 161.017654,396.505402 
	C159.696548,397.194641 157.411530,397.334778 156.177551,396.635406 
	C153.155396,394.922516 150.708160,394.870178 149.027161,398.015778 
	C146.895538,402.004608 143.345398,402.147095 140.131897,400.840973 
	C131.794022,397.451935 123.156647,397.616455 114.554482,398.166260 
	C103.306946,398.885162 95.276321,409.605103 97.164116,420.629059 
	C99.046539,431.621674 110.312370,438.825287 121.258987,435.416199 
	C129.843170,432.742859 137.920670,428.882629 144.429031,422.238037 
	C147.095734,419.515472 150.353958,417.588165 154.309753,420.924469 
	C156.673019,422.917694 158.804550,421.775513 160.727753,419.560364 
	C161.820465,418.301697 164.428665,416.516785 164.875580,416.865295 
	C166.609222,418.217163 168.933014,420.342072 168.913925,422.156860 
	C168.810791,431.957611 168.050323,441.750549 167.558746,451.548309 
	C167.017487,462.336731 166.189896,473.124695 166.099304,483.917999 
	C166.007553,494.850586 170.626343,500.359650 181.318451,503.075867 
	C186.136993,504.299988 191.070389,505.072052 196.356262,506.081818 
	C195.873825,506.713165 195.033051,507.741547 194.092438,507.842834 
	C186.470963,508.663727 180.712158,512.042175 176.656555,518.776672 
	C171.403442,527.499512 164.982712,535.362915 154.177750,537.074768 
	C148.919632,537.907776 143.420380,537.218811 138.030289,537.218811 
	C137.970978,536.709717 137.911682,536.200623 137.852371,535.691528 
	C141.774551,533.190308 145.842697,530.889343 149.594070,528.153870 
	C167.475418,515.114807 168.532394,500.778961 152.871490,485.284882 
	C143.074539,475.592316 130.490524,471.881012 117.562866,469.031250 
	C103.445526,465.919189 89.251900,463.146484 75.167053,459.898315 
	C71.505630,459.053986 67.949036,457.300476 64.646965,455.430145 
	C49.314533,446.745636 44.785084,431.788147 52.473362,415.637939 
	C54.273640,419.559601 55.699474,423.626038 57.880020,427.236664 
	C64.592018,438.350708 75.422173,439.463196 84.388168,430.201569 
	C96.917778,417.258820 97.755547,396.156647 85.400558,383.084778 
	C79.049911,376.365662 71.157440,371.125336 64.174736,364.974945 
	C59.075325,360.483398 53.637566,356.121704 49.553772,350.781982 
	C39.742416,337.953339 40.115902,318.887604 49.554016,307.551056 
	C50.604496,306.289276 51.315178,304.744598 52.183445,303.331116 
	C52.792202,303.693542 53.400955,304.055969 54.009712,304.418396 
	C54.009712,309.279816 53.587833,314.186493 54.102928,318.992706 
	C55.004635,327.406281 60.595314,332.463440 67.659073,332.122681 
	C73.467140,331.842529 75.425529,327.058075 78.611671,323.228394 
z"/>
<path fill="#25A5DB" opacity="1.000000" stroke="none" 
	d="
M99.869675,297.575226 
	C92.604012,297.821045 86.295219,299.926239 81.285110,305.927002 
	C80.022957,300.714294 79.476433,295.231995 78.016403,290.004883 
	C75.397591,280.629150 70.319038,272.819946 61.419975,267.812683 
	C75.303894,264.727203 94.079437,279.201630 99.869675,297.575226 
z"/>
<path fill="#25A5DA" opacity="1.000000" stroke="none" 
	d="
M480.165192,176.154404 
	C472.211517,189.658310 473.753571,203.471588 478.995300,217.463318 
	C472.183929,217.463318 465.497559,217.463318 458.503143,217.463318 
	C454.748779,202.795029 462.727478,185.843246 479.399323,175.818756 
	C479.871613,175.869980 480.165192,176.154404 480.165192,176.154404 
z"/>
<path fill="#191A1B" opacity="1.000000" stroke="none" 
	d="
M491.924561,458.066833 
	C494.797791,458.648346 497.490570,459.531738 500.461884,460.612579 
	C505.423859,463.345490 502.876709,466.505127 501.195831,469.327240 
	C501.225983,465.954102 500.269257,464.105225 496.920685,462.856995 
	C491.324219,460.770782 485.046143,465.447876 487.213745,472.917664 
	C483.499451,466.944244 484.478943,463.798706 491.924561,458.066833 
z"/>
<path fill="#494949" opacity="1.000000" stroke="none" 
	d="
M487.457703,472.956268 
	C485.046143,465.447876 491.324219,460.770782 496.920685,462.856995 
	C500.269257,464.105225 501.225983,465.954102 500.888000,469.485413 
	C500.880402,469.880402 500.906647,469.916168 500.659668,470.037842 
	C499.925507,470.441772 499.438354,470.724030 498.677856,470.792938 
	C496.281006,469.427002 494.049866,467.265625 492.071777,467.476624 
	C490.754639,467.617157 489.798553,471.142487 488.680847,473.152832 
	C488.348297,473.138519 488.021912,473.085846 487.457703,472.956268 
z"/>
<path fill="#808080" opacity="1.000000" stroke="none" 
	d="
M488.821930,473.493164 
	C489.798553,471.142487 490.754639,467.617157 492.071777,467.476624 
	C494.049866,467.265625 496.281006,469.427002 498.600983,471.113342 
	C498.672150,472.069672 498.546844,472.492279 498.421570,472.914917 
	C495.418182,474.760010 492.621613,478.735107 488.821930,473.493164 
z"/>
<path fill="#191A1B" opacity="1.000000" stroke="none" 
	d="
M498.785400,472.849274 
	C498.546844,472.492279 498.672150,472.069672 498.874298,471.326660 
	C499.438354,470.724030 499.925507,470.441772 500.675537,470.052460 
	C500.342041,470.891479 499.745667,471.837555 498.785400,472.849274 
z"/>
<path fill="#25A5DA" opacity="1.000000" stroke="none" 
	d="
M479.728333,175.724243 
	C479.929077,175.462219 480.273102,175.345901 480.617126,175.229584 
	C480.622101,175.461258 480.627075,175.692947 480.398621,176.039520 
	C480.165192,176.154404 479.871613,175.869980 479.728333,175.724243 
z"/>
<path fill="#15131E" opacity="1.000000" stroke="none" 
	d="
M229.485504,375.370331 
	C238.364716,382.740356 241.445312,392.109497 238.240158,401.288422 
	C235.072845,410.358978 226.959442,416.497314 217.628357,416.882629 
	C208.504745,417.259399 200.013275,411.949646 196.086731,403.412598 
	C192.225708,395.018005 193.907196,385.166779 200.356445,378.397797 
	C206.480896,371.969727 216.317230,369.745911 224.713593,372.963257 
	C226.257828,373.554962 227.696686,374.421661 229.485504,375.370331 
M230.542282,388.787537 
	C228.115433,386.351501 228.371323,389.432068 227.949661,390.222931 
	C222.659378,400.145233 212.120987,401.945496 203.915375,394.251587 
	C203.434830,393.800995 202.911957,393.395569 202.172699,392.769104 
	C201.989700,400.400635 205.032745,405.475861 211.046463,407.880798 
	C216.224197,409.951477 221.139557,409.352417 225.627075,406.010559 
	C231.304962,401.782227 232.144257,395.974609 230.542282,388.787537 
z"/>
<path fill="#15131E" opacity="1.000000" stroke="none" 
	d="
M218.403351,284.797638 
	C223.617126,297.704163 219.263885,310.002136 207.850555,315.478149 
	C197.386414,320.498688 184.625748,316.629730 178.767380,306.660278 
	C172.374664,295.781525 175.899185,281.722107 186.605728,275.392822 
	C197.831375,268.756683 211.398880,272.650391 218.403351,284.797638 
M183.212112,295.010834 
	C183.629425,296.944458 183.736099,299.015869 184.521408,300.786255 
	C187.034225,306.451202 191.563889,309.575287 197.741791,309.832672 
	C203.760834,310.083466 208.393158,307.330109 211.221817,302.055145 
	C213.773407,297.296875 213.962982,292.438263 210.628098,287.386505 
	C207.088058,300.339325 192.990234,303.764557 185.240158,294.905762 
	C184.896439,294.512878 184.093491,294.521729 183.212112,295.010834 
z"/>
<path fill="#14131E" opacity="1.000000" stroke="none" 
	d="
M166.569321,175.654663 
	C180.149124,174.906311 190.646866,183.948532 191.681641,196.853531 
	C192.619232,208.546494 183.235809,219.463821 171.065048,220.840332 
	C158.866455,222.220001 147.812943,213.014618 146.211121,200.141937 
	C144.779739,188.638702 153.784012,177.631943 166.569321,175.654663 
M174.948059,211.818100 
	C183.690979,206.629852 186.340820,198.327499 181.278183,191.184814 
	C179.310425,197.000198 175.844086,201.190491 169.753265,202.624130 
	C163.412506,204.116577 158.722351,200.953476 154.343674,196.661194 
	C152.806824,207.463303 164.115067,216.120071 174.948059,211.818100 
z"/>
<path fill="#191A28" opacity="1.000000" stroke="none" 
	d="
M411.736206,362.462524 
	C407.567505,373.409729 398.217499,379.807312 388.292023,378.802277 
	C377.668488,377.726562 369.632263,370.530304 367.719299,360.059662 
	C365.988770,350.587769 369.364807,342.873016 377.103699,337.481079 
	C384.885345,332.059448 393.413177,331.758118 401.564453,336.672974 
	C409.689697,341.572144 413.275757,349.115479 412.448608,358.636505 
	C412.348114,359.793335 412.058472,360.933746 411.736206,362.462524 
M403.976379,361.119873 
	C403.976379,356.999023 403.976379,352.878174 403.976379,348.757324 
	C403.449921,348.699097 402.923462,348.640869 402.397034,348.582642 
	C400.583923,354.594910 397.193024,358.993652 390.854370,360.540314 
	C384.460876,362.100311 379.856201,358.729584 375.325439,354.621094 
	C375.050659,362.789215 379.017517,368.456177 386.051147,370.452271 
	C393.117676,372.457672 399.515717,369.344513 403.976379,361.119873 
z"/>
<path fill="#181A29" opacity="1.000000" stroke="none" 
	d="
M348.574707,135.553406 
	C362.257416,135.164581 371.775909,142.754959 373.711548,155.193619 
	C375.346832,165.702286 368.128387,176.810379 357.681671,179.861115 
	C345.521179,183.412338 332.630859,176.343079 329.346344,164.321579 
	C325.929840,151.817017 333.146362,139.347763 345.713959,136.066299 
	C346.516296,135.856796 347.352753,135.777863 348.574707,135.553406 
M354.816040,161.677811 
	C347.644348,164.801926 341.882141,161.768448 336.386871,156.581924 
	C336.624146,165.370911 340.473633,170.582489 347.541199,172.533524 
	C353.472656,174.170944 360.277557,171.549347 363.636414,166.332886 
	C366.916504,161.238739 366.837067,155.186356 364.262238,152.031891 
	C361.410492,155.044006 358.449402,158.171646 354.816040,161.677811 
z"/>
<path fill="#181A29" opacity="1.000000" stroke="none" 
	d="
M346.020020,246.190521 
	C352.735809,237.252548 361.589142,233.863205 371.135803,236.321198 
	C379.913300,238.581177 386.578918,246.270798 387.788147,255.531784 
	C388.943512,264.380341 384.463959,273.325531 376.591858,277.889496 
	C367.824585,282.972473 356.581390,281.585938 349.339813,274.528748 
	C341.964935,267.341675 340.630615,256.663055 346.020020,246.190521 
M354.559723,260.141418 
	C353.354523,259.175903 352.149353,258.210358 350.675659,257.029755 
	C350.459473,264.985748 353.993622,270.206512 360.664337,272.396423 
	C366.824768,274.418762 373.783600,272.115265 377.456818,266.837921 
	C380.886414,261.910461 380.952728,255.645050 377.619904,251.423477 
	C372.699127,262.619598 365.128662,265.713593 354.559723,260.141418 
z"/>
<path fill="#131C2A" opacity="1.000000" stroke="none" 
	d="
M166.956604,370.695679 
	C159.234482,369.940308 155.231720,365.355469 154.007507,355.840424 
	C152.579178,344.738831 146.959717,337.054291 136.266083,333.325745 
	C135.514038,333.063477 134.674286,333.052856 132.959015,332.778870 
	C139.024979,339.853882 139.631073,347.173187 136.462265,354.861084 
	C134.104736,360.580688 130.176392,364.947632 123.766190,365.575470 
	C117.446312,366.194519 112.637459,362.810272 108.937241,357.933350 
	C104.156570,351.632324 103.741035,344.084961 103.125427,336.175415 
	C111.630081,331.707611 120.207237,327.900055 127.018944,320.923981 
	C128.599045,319.305756 131.974258,317.939148 135.004120,320.763000 
	C137.547760,323.133667 140.015747,322.100586 141.993652,319.107391 
	C142.709122,318.024689 145.440521,316.914581 146.140060,317.404541 
	C150.256760,320.288086 153.163330,319.022522 156.138718,314.273560 
	C161.386353,333.327454 164.485947,351.735535 166.956604,370.695679 
z"/>
<path fill="#CC000E" opacity="1.000000" stroke="none" 
	d="
M230.695892,389.150940 
	C232.144257,395.974609 231.304962,401.782227 225.627075,406.010559 
	C221.139557,409.352417 216.224197,409.951477 211.046463,407.880798 
	C205.032745,405.475861 201.989700,400.400635 202.172699,392.769104 
	C202.911957,393.395569 203.434830,393.800995 203.915375,394.251587 
	C212.120987,401.945496 222.659378,400.145233 227.949661,390.222931 
	C228.371323,389.432068 228.115433,386.351501 230.695892,389.150940 
z"/>
<path fill="#C9010F" opacity="1.000000" stroke="none" 
	d="
M183.358276,294.677124 
	C184.093491,294.521729 184.896439,294.512878 185.240158,294.905762 
	C192.990234,303.764557 207.088058,300.339325 210.628098,287.386505 
	C213.962982,292.438263 213.773407,297.296875 211.221817,302.055145 
	C208.393158,307.330109 203.760834,310.083466 197.741791,309.832672 
	C191.563889,309.575287 187.034225,306.451202 184.521408,300.786255 
	C183.736099,299.015869 183.629425,296.944458 183.358276,294.677124 
z"/>
<path fill="#C9010F" opacity="1.000000" stroke="none" 
	d="
M174.571426,211.935928 
	C164.115067,216.120071 152.806824,207.463303 154.343674,196.661194 
	C158.722351,200.953476 163.412506,204.116577 169.753265,202.624130 
	C175.844086,201.190491 179.310425,197.000198 181.278183,191.184814 
	C186.340820,198.327499 183.690979,206.629852 174.571426,211.935928 
z"/>
<path fill="#F40114" opacity="1.000000" stroke="none" 
	d="
M403.848328,361.487366 
	C399.515717,369.344513 393.117676,372.457672 386.051147,370.452271 
	C379.017517,368.456177 375.050659,362.789215 375.325439,354.621094 
	C379.856201,358.729584 384.460876,362.100311 390.854370,360.540314 
	C397.193024,358.993652 400.583923,354.594910 402.397034,348.582642 
	C402.923462,348.640869 403.449921,348.699097 403.976379,348.757324 
	C403.976379,352.878174 403.976379,356.999023 403.848328,361.487366 
z"/>
<path fill="#F50114" opacity="1.000000" stroke="none" 
	d="
M355.152161,161.488541 
	C358.449402,158.171646 361.410492,155.044006 364.262238,152.031891 
	C366.837067,155.186356 366.916504,161.238739 363.636414,166.332886 
	C360.277557,171.549347 353.472656,174.170944 347.541199,172.533524 
	C340.473633,170.582489 336.624146,165.370911 336.386871,156.581924 
	C341.882141,161.768448 347.644348,164.801926 355.152161,161.488541 
z"/>
<path fill="#F50114" opacity="1.000000" stroke="none" 
	d="
M354.847504,260.377075 
	C365.128662,265.713593 372.699127,262.619598 377.619904,251.423477 
	C380.952728,255.645050 380.886414,261.910461 377.456818,266.837921 
	C373.783600,272.115265 366.824768,274.418762 360.664337,272.396423 
	C353.993622,270.206512 350.459473,264.985748 350.675659,257.029755 
	C352.149353,258.210358 353.354523,259.175903 354.847504,260.377075 
z"/>
</svg>